<svg width="154" height="39" fill="none" xmlns="http://www.w3.org/2000/svg"><rect x="1" y="1" width="152" height="37" rx="4" stroke="#000" stroke-width="2"/><path d="M19.058 22.948l-5.742-3.6v-1.026l5.76-3.618.792 1.26-4.662 2.862 4.662 2.844-.81 1.278zm14.195 2.232l-1.404-3.6h-5.832l-1.404 3.564-1.458-.594 4.932-12.15h1.872l4.86 12.15-1.566.63zm-6.696-5.04h4.734l-2.358-6.048-2.376 6.048zM37.34 25v-9.36h1.566v1.566a4.41 4.41 0 011.278-1.26c.528-.348 1.152-.522 1.872-.522 1.056 0 1.842.318 2.358.954.528.636.792 1.476.792 2.52V25h-1.62v-5.922c0-.672-.162-1.212-.486-1.62-.312-.408-.75-.612-1.314-.612-.552 0-1.074.198-1.566.594-.492.384-.912.84-1.26 1.368V25h-1.62zm15.098.216c-.768 0-1.47-.198-2.106-.594-.636-.396-1.14-.954-1.512-1.674-.372-.732-.558-1.59-.558-2.574 0-.948.186-1.794.558-2.538.384-.744.888-1.332 1.512-1.764a3.639 3.639 0 012.088-.648c.624 0 1.158.126 1.602.378.456.252.81.51 1.062.774V11.68h1.62v11.052c0 .456.108.756.324.9.228.132.474.198.738.198l-.342 1.26c-1.14 0-1.836-.456-2.088-1.368-.264.372-.636.714-1.116 1.026-.468.312-1.062.468-1.782.468zm.36-1.44c.444 0 .864-.102 1.26-.306a3.32 3.32 0 001.026-.828v-4.644c-.228-.288-.546-.552-.954-.792a2.519 2.519 0 00-1.35-.378c-.576 0-1.08.156-1.512.468a3.099 3.099 0 00-1.008 1.26c-.228.516-.342 1.104-.342 1.764 0 .66.126 1.254.378 1.782.252.516.594.924 1.026 1.224.444.3.936.45 1.476.45zm11.602 1.44c-1.345 0-2.413-.426-3.205-1.278-.78-.864-1.17-2.07-1.17-3.618 0-.936.175-1.77.523-2.502.36-.744.858-1.326 1.494-1.746.636-.432 1.373-.648 2.213-.648.9 0 1.644.198 2.233.594.6.384 1.05.906 1.35 1.566.3.66.45 1.386.45 2.178 0 .42-.019.828-.055 1.224h-6.551c.108.876.413 1.56.918 2.052.504.492 1.17.738 1.998.738.54 0 1.026-.054 1.458-.162.431-.12.845-.27 1.241-.45l.378 1.386a7.703 7.703 0 01-1.458.468 7.67 7.67 0 01-1.817.198zm-2.736-5.544h5.13c0-.912-.229-1.614-.684-2.106-.456-.492-1.087-.738-1.89-.738-.696 0-1.272.246-1.728.738-.456.48-.733 1.182-.828 2.106zM71.346 25v-9.36h1.566v2.034c.155-.396.365-.762.63-1.098.263-.348.593-.624.99-.828.395-.216.858-.324 1.386-.324.18 0 .36.012.54.036.18.012.33.036.45.072l-.487 1.674a2.079 2.079 0 00-.81-.144c-.444 0-.87.126-1.278.378-.395.252-.725.642-.99 1.17-.252.528-.377 1.2-.377 2.016V25h-1.62zm7.369 0v-1.332l6.696-9.792h-6.39V12.4h8.352v1.296l-6.696 9.792h6.948V25h-8.91zm15.717.216c-1.344 0-2.412-.426-3.204-1.278-.78-.864-1.17-2.07-1.17-3.618 0-.936.174-1.77.522-2.502.36-.744.858-1.326 1.494-1.746.636-.432 1.374-.648 2.214-.648.9 0 1.644.198 2.232.594.6.384 1.05.906 1.35 1.566.3.66.45 1.386.45 2.178 0 .42-.018.828-.054 1.224h-6.552c.108.876.414 1.56.918 2.052s1.17.738 1.998.738c.54 0 1.026-.054 1.458-.162.432-.12.846-.27 1.242-.45l.378 1.386a7.703 7.703 0 01-1.458.468 7.67 7.67 0 01-1.818.198zm-2.736-5.544h5.13c0-.912-.228-1.614-.684-2.106-.456-.492-1.086-.738-1.89-.738-.696 0-1.272.246-1.728.738-.456.48-.732 1.182-.828 2.106zM101.38 25v-9.36h1.566v1.566a4.41 4.41 0 011.278-1.26c.528-.348 1.152-.522 1.872-.522 1.056 0 1.842.318 2.358.954.528.636.792 1.476.792 2.52V25h-1.62v-5.922c0-.672-.162-1.212-.486-1.62-.312-.408-.75-.612-1.314-.612-.552 0-1.074.198-1.566.594-.492.384-.912.84-1.26 1.368V25h-1.62zm14.991 4.176a6.654 6.654 0 01-1.62-.198 4.653 4.653 0 01-1.386-.594l.594-1.404c.288.228.624.414 1.008.558.384.156.852.234 1.404.234.852 0 1.518-.228 1.998-.684.492-.444.738-1.158.738-2.142v-1.152c-.24.288-.588.564-1.044.828-.444.252-.978.378-1.602.378-.708 0-1.38-.18-2.016-.54-.636-.372-1.152-.912-1.548-1.62-.396-.708-.594-1.56-.594-2.556 0-.936.192-1.77.576-2.502a4.593 4.593 0 011.584-1.728c.66-.42 1.386-.63 2.178-.63.528 0 1.008.09 1.44.27.432.18.804.402 1.116.666v-.72h1.476v9.144c0 1.032-.18 1.872-.54 2.52a3.27 3.27 0 01-1.512 1.422c-.636.3-1.386.45-2.25.45zm.45-5.616c.48 0 .912-.108 1.296-.324.384-.216.696-.468.936-.756v-4.896a4.728 4.728 0 00-.954-.522c-.372-.156-.804-.234-1.296-.234s-.954.132-1.386.396c-.432.264-.786.648-1.062 1.152-.264.492-.396 1.098-.396 1.818 0 .684.132 1.278.396 1.782.276.504.63.894 1.062 1.17.432.276.9.414 1.404.414zm8.279 2.718l-1.332-.45 5.076-14.742 1.332.45-5.076 14.742zm9.85-3.33l-.81-1.278 4.662-2.844-4.662-2.862.792-1.26 5.76 3.618v1.026l-5.742 3.6z" fill="#000"/></svg>