<svg fill="none" height="30" viewBox="0 0 30 30" width="30" xmlns="http://www.w3.org/2000/svg"><path clip-rule="evenodd" d="m15 2.5c-6.90625 0-12.5 5.59375-12.5 12.5-.00142 2.6241.82352 5.182 2.35777 7.3108 1.53425 2.1289 3.69991 3.7205 6.18973 4.5492.625.1088.8588-.2663.8588-.595 0-.2963-.0163-1.28-.0163-2.3275-3.14.5787-3.9525-.765-4.2025-1.4687-.14125-.36-.75-1.4688-1.28125-1.7663-.4375-.2337-1.0625-.8125-.01625-.8275.985-.0163 1.6875.9062 1.9225 1.2812 1.125 1.89 2.9225 1.3588 3.64 1.0313.11-.8125.4375-1.3587.7975-1.6712-2.78125-.3125-5.6875-1.3913-5.6875-6.1725 0-1.36.48375-2.4838 1.28125-3.3601-.125-.3125-.5625-1.5937.125-3.31245 0 0 1.04625-.3275 3.43755 1.2825 1.0175-.28242 2.0689-.42457 3.125-.4225 1.0625 0 2.125.14 3.125.42125 2.39-1.625 3.4375-1.28 3.4375-1.28.6875 1.71875.25 3 .125 3.3125.7962.875 1.2812 1.9838 1.2812 3.3588 0 4.7975-2.9212 5.86-5.7025 6.1725.4525.39.8438 1.14.8438 2.3125 0 1.6712-.0163 3.015-.0163 3.4375 0 .3275.235.7174.86.5924 2.4813-.8377 4.6374-2.4325 6.1649-4.5598s2.3494-4.68 2.3501-7.2989c0-6.90625-5.5937-12.5-12.5-12.5z" fill="#000" fill-rule="evenodd"/></svg>