<svg fill="none" height="21" viewBox="0 0 100 21" width="100" xmlns="http://www.w3.org/2000/svg"><path d="m14.936 3.0295h-6.73456v2.51804 1.53601 1.29428 1.12808 2.54319h3.67476v-3.66624h-2.7775v-2.83028h4.1234c.4134 0 .7864.16619 1.0535.43814.2722.26691.4386.64462.4386 1.05254v6.42104 1.4151h-1.4165-6.44217c-.41334 0-.78637-.1662-1.05353-.4381-.27221-.272-.43855-.6446-.43855-1.0526v-6.30011-.12087-1.41514-3.74181-1.611551h9.57255c1.4165 0 2.6968.574114 3.6294 1.505791.9275.92664 1.5072 2.21084 1.5072 3.62095v10.63114 2.0044.8864c0 .7604-.62 1.3798-1.3812 1.3798h-.2369-.7259-12.59199c-1.41648 0-2.69685-.5741-3.6294-1.5057-.932555-.9267-1.50721-2.2109-1.50721-3.621v-9.55346h1.48201 1.35094 1.62819v2.83029h-1.62819v6.72317c0 .6295.25708 1.2036.67547 1.6216s.99304.6749 1.62315.6749h12.09803v-12.07154c0-.62951-.2571-1.20363-.6755-1.62162-.4134-.41296-.983-.67484-1.6181-.67484z" fill="#22ad01"/><g fill="#15362b"><path d="m90.4094 7.04339c-1.3005-.90146-2.9186-1.22377-4.5468-.87628-2.2281.47842-4.0024 2.30653-4.4158 4.55769-.3176 1.7173.1361 3.4648 1.2401 4.7893 1.1039 1.3245 2.727 2.0849 4.446 2.0849 1.1442 0 2.2532-.3374 3.1858-.9568.1462.423.5444.7302 1.0182.7302h1.6333v-11.11968h-1.2855c-.5595-.00504-1.0434.32231-1.2753.79067zm-5.9381 6.31521c-.3075-.4885-.4486-1.0122-.4285-1.6014.0252-.831.4033-1.6418 1.0334-2.21591.5948-.53887 1.2905-.80074 2.1222-.80074.5747 0 1.0838.13597 1.5627.41296 1.0132.59426 1.5072 1.48569 1.5072 2.71449 0 .8108-.2974 1.5007-.9074 2.1151-.6704.6698-1.4467.9669-2.3843.8964-.3932-.0302-.7864-.1359-1.1443-.3122-.5847-.282-1.0333-.6799-1.361-1.2087z"/><path d="m37.6424 6.77648c-.9124-.49354-1.9004-.74031-2.9438-.74031-.8822 0-1.7038.19137-2.4549.57412-.1714.08561-.3327.18129-.489.28202v-2.96122c0-.59426-.4839-1.07269-1.0737-1.07269h-1.6685v14.514h1.6181c.4638 0 .857-.2921 1.0082-.705.2218.146.4587.2769.7158.3928.7864.3626 1.6231.5439 2.4801.5439 1.729 0 3.2463-.7202 4.5065-2.1353.8872-.9921 1.3358-2.2361 1.3358-3.7016 0-1.0525-.2772-2.03454-.8267-2.92089-.5494-.88132-1.2904-1.5763-2.2079-2.06983zm-.0857 6.48652c-.2873.5237-.6704.9165-1.1694 1.2137-.4739.2769-.978.4129-1.5325.4129-.5797 0-1.1089-.1309-1.5979-.3878-1.0586-.5841-1.5526-1.4151-1.5526-2.6187 0-.9116.2823-1.6468.867-2.2562.5747-.59929 1.2905-.89139 2.1928-.89139s1.6383.28706 2.2583.87125c.6099.57414.9023 1.28924.9073 2.18064 0 .5237-.131 1.0324-.373 1.4756z"/><path d="m49.3362 6.03613c-1.0485 0-2.0315.26692-2.9237.79067s-1.603 1.23888-2.1121 2.13026c-.5091.89139-.7662 1.87344-.7662 2.91594 0 1.0273.2722 1.9943.8015 2.8756.6049 1.0021 1.4517 1.7727 2.5153 2.2914.6049.2971 1.2502.4784 1.9206.5389.1916.0151.3781.0251.5646.0251 1.0384 0 2.0163-.2669 2.8985-.8007.998-.5993 1.7642-1.4504 2.2885-2.5231.3125-.6446.499-1.3346.5494-2.0547.1261-1.7375-.4385-3.24325-1.6886-4.48717-1.1393-1.13312-2.5003-1.7022-4.0478-1.7022zm3.0043 5.71097c0 .569-.131 1.0878-.3932 1.5813-.5746 1.0676-1.4064 1.5612-2.6111 1.5612-.7662 0-1.4921-.272-2.0416-.7705-.7057-.6396-1.0384-1.4051-1.0182-2.3469.0101-.4129.1008-.8309.2672-1.1986.2772-.62946.6855-1.09278 1.2501-1.42013.4789-.27698.9829-.41296 1.5425-.41296.7964 0 1.487.28706 2.107.87125.6049.57414.8973 1.27414.8973 2.13534z"/><path d="m63.2985 6.03613c-.9174 0-1.729.24677-2.4347.73527-.1865-.31224-.5293-.52375-.9225-.52375h-1.6181v11.11965h2.7473v-5.8166c0-.4835.0252-.9166.0756-1.2742.0756-.42301.3125-.7705.746-1.0777.4235-.31224.862-.45829 1.351-.45829.8519 0 1.4618.29713 1.9206.93168.2873.40291.4335 1.03241.4335 1.87341v4.744c0 .5943.4839 1.0727 1.0737 1.0727h1.6685v-5.8167c0-1.5511-.3529-2.77487-1.0485-3.64108-1.0082-1.23888-2.3541-1.86839-3.9924-1.86839z"/><path d="m96.5674 7.32025v10.04695h1.6685c.5948 0 1.0737-.4834 1.0737-1.0726v-10.04704h-1.6685c-.5898 0-1.0737.47843-1.0737 1.07269z"/><path d="m98.2661 2.94389h-1.3509c-.1916 0-.3478-.15612-.3478-.34749v-1.34967c0-.579155.4688-1.047511 1.0485-1.047511h1.6987v1.697161c-.005.57915-.4688 1.04751-1.0485 1.04751z"/><path d="m77.9582 11.6107c-.6906-.4231-1.4719-.7655-2.344-1.0223-.0756-.0252-.1663-.0504-.2621-.0806-.0958-.0252-.1966-.0504-.3024-.0756-.2218-.0805-.4285-.1863-.6251-.3223-.1966-.13595-.2873-.32732-.2722-.57409v-.02014c0-.29713.0958-.52376.2923-.67484.1966-.15108.4336-.22662.7209-.22662.247 0 .4637.06547.6553.19641.0504.03525.0907.0705.1311.11583.1512.17626.3931.24676.6049.15108l1.9155-.87124c-.1765-.42807-.4537-.81585-.8418-1.15831-.7158-.64462-1.5224-.96693-2.4196-.96693-.9528 0-1.7946.30721-2.5356.91657-.741.60937-1.114 1.41514-1.114 2.41733 0 .45324.0857.87125.2621 1.24895s.4386.7151.7914 1.0123c.116.1057.2319.1913.3428.2618s.2168.131.3226.1864c.1311.0654.2621.1259.3882.1762.131.0504.2671.1058.4083.1561l.2319.0806c.0806.0252.1613.0504.252.0756.1058.0403.2117.0755.3226.1057s.2268.0756.3428.1259c.2974.1058.5696.2418.8116.418.2419.1763.3629.4281.3629.7504 0 .3374-.126.5943-.373.7705-.247.1763-.5293.2619-.8418.2619-.3781 0-.6806-.1158-.9175-.3525-.0252-.0252-.0554-.0554-.0756-.0856-.2672-.3072-.8166-.4885-1.2148-.4029l-1.724.3777c.1563.7655.5142 1.4151 1.0737 1.9389.736.6899 1.6584 1.0324 2.7624 1.0324.1058 0 .2067-.0051.3125-.0202l.3125-.0403c.4033-.0805.7965-.2064 1.1796-.3877s.7208-.4029 1.0031-.6648c.363-.3525.6352-.7453.8217-1.1785.1814-.4331.2722-.9064.2722-1.4151.005-1.0676-.3428-1.818-1.0334-2.236z"/></g></svg>