<?xml version="1.0" standalone="no"?>
<!DOCTYPE svg PUBLIC "-//W3C//DTD SVG 20010904//EN"
 "http://www.w3.org/TR/2001/REC-SVG-20010904/DTD/svg10.dtd">
<svg version="1.0" xmlns="http://www.w3.org/2000/svg"
 width="512.000000pt" height="512.000000pt" viewBox="0 0 512.000000 512.000000"
 preserveAspectRatio="xMidYMid meet">
<metadata>
Created by potrace 1.14, written by Peter Selinger 2001-2017
</metadata>
<g transform="translate(0.000000,512.000000) scale(0.100000,-0.100000)"
fill="#000000" stroke="none">
<path d="M1715 5113 c-234 -32 -466 -142 -617 -294 -39 -38 -45 -60 -29 -102
8 -19 3 -32 -30 -74 -33 -44 -43 -51 -74 -51 -46 0 -58 -11 -94 -85 -65 -136
-103 -298 -105 -454 l-1 -103 -60 -37 c-82 -51 -146 -121 -189 -206 -36 -71
-39 -81 -54 -162 -10 -52 2 -172 23 -234 33 -100 118 -207 211 -267 90 -58
163 -77 302 -78 l123 -1 -7 -50 c-3 -27 -8 -57 -10 -65 -1 -8 -3 -18 -3 -22
-1 -5 -14 -8 -31 -8 -37 0 -136 -34 -193 -66 -127 -71 -230 -230 -244 -378 -5
-55 -9 -65 -48 -104 -90 -90 -112 -202 -60 -307 29 -61 69 -99 135 -129 43
-19 65 -20 442 -21 382 -1 398 -2 413 -20 66 -84 113 -189 129 -286 l4 -27
-266 -2 c-1003 -6 -1106 -8 -1156 -25 -91 -31 -147 -80 -192 -166 -25 -47 -28
-65 -28 -139 1 -93 19 -148 69 -208 36 -43 106 -91 145 -98 25 -6 30 -11 31
-38 0 -17 2 -38 3 -46 2 -8 6 -37 10 -65 23 -185 64 -331 132 -470 50 -102
103 -163 172 -197 l47 -23 1915 0 1915 0 48 22 c85 40 154 133 217 292 24 63
66 218 75 282 3 24 9 58 12 74 6 33 10 76 12 117 1 23 7 29 44 38 110 27 190
89 234 178 23 49 27 70 27 142 0 72 -4 93 -27 137 -47 90 -116 149 -206 173
-30 8 -227 13 -620 16 -317 3 -581 6 -587 8 -6 3 -14 22 -17 43 -14 89 -20
112 -51 193 -18 47 -36 92 -39 100 -5 10 8 25 41 48 108 75 143 125 118 174
-11 21 -8 31 27 86 33 53 43 62 68 62 16 0 38 9 48 19 21 21 46 99 62 189 5
31 12 66 14 78 4 20 9 20 367 19 200 0 388 3 418 8 194 28 344 210 334 406 -7
134 -69 242 -181 316 l-43 28 -1 66 c-4 371 -258 684 -628 776 -70 18 -203 23
-292 12 -71 -8 -198 -49 -258 -83 l-45 -25 -18 23 c-10 13 -18 26 -18 30 0 4
-13 26 -29 50 -93 138 -222 237 -382 291 -88 30 -127 36 -236 37 l-83 0 -29
64 c-138 304 -422 530 -755 602 -68 15 -289 26 -351 17z m962 -2157 c4 -4 9
-19 11 -33 2 -15 13 -50 24 -78 89 -211 291 -347 514 -347 13 0 24 -2 24 -4 0
-7 -88 -54 -129 -69 -55 -19 -81 -24 -154 -32 l-58 -6 -144 98 c-264 178 -426
322 -482 427 -12 23 -19 45 -14 48 13 7 401 4 408 -4z"/>
</g>
</svg>
